<svg width="24" height="24" xmlns="http://www.w3.org/2000/svg">
 <title>130 calendar</title>

 <g>
  <title>background</title>
  <rect fill="none" id="canvas_background" height="402" width="582" y="-1" x="-1"/>
 </g>
 <g>
  <title>Layer 1</title>
  <path fill="#f2f2f2" id="svg_1" d="m19,2l-1,0l0,-1a1,1 0 0 0 -2,0l0,1l-8,0l0,-1a1,1 0 0 0 -2,0l0,1l-1,0a5.006,5.006 0 0 0 -5,5l0,12a5.006,5.006 0 0 0 5,5l14,0a5.006,5.006 0 0 0 5,-5l0,-12a5.006,5.006 0 0 0 -5,-5zm-17,5a3,3 0 0 1 3,-3l14,0a3,3 0 0 1 3,3l0,1l-20,0l0,-1zm17,15l-14,0a3,3 0 0 1 -3,-3l0,-9l20,0l0,9a3,3 0 0 1 -3,3z"/>
  <circle fill="#f2f2f2" fill-opacity="0" id="svg_2" r="1.5" cy="15" cx="12"/>
  <circle fill="#f2f2f2" fill-opacity="0" id="svg_3" r="1.5" cy="15" cx="7"/>
  <circle fill="#f2f2f2" fill-opacity="0" id="svg_4" r="1.5" cy="15" cx="17"/>
 </g>
</svg>