<svg width="1266" height="319" viewBox="0 0 1266 319" fill="none" xmlns="http://www.w3.org/2000/svg">
<g clip-path="url(#clip0)">
<path d="M30.6307 45.777V75.1915V118.908H0V45.7651H30.6307V45.777ZM162.153 118.92H192.784V89.2914V0.0119087H149.082L97.2134 82.1462L42.071 0.0119087H0V31.4747H31.0473L86.5944 118.908H107.011L162.153 31.4747V118.908V118.92ZM214.641 89.2914V29.6407C214.641 21.4714 218.391 14.4929 225.879 8.70526C233.367 2.91763 242.486 0.0238174 253.248 0.0238174L368.842 0.226265C379.604 0.226265 388.723 3.12008 396.211 8.9077C403.699 14.6953 407.449 21.6738 407.449 29.8432V89.2914C407.449 97.4608 403.699 104.439 396.211 110.227C388.723 116.015 379.604 118.908 368.842 118.908H253.248C242.486 118.908 233.367 116.015 225.879 110.227C218.391 104.439 214.641 97.4608 214.641 89.2914V89.2914ZM376.996 69.8802V46.9917C376.044 42.907 373.187 39.2987 368.425 36.1667C363.663 33.0347 357.663 31.4628 350.449 31.4628H271.212C263.998 31.4628 257.938 33.0347 253.033 36.1667C248.129 39.2987 245.545 43.038 245.271 47.3966V70.2851C245.271 74.6437 247.724 78.4545 252.629 81.7294C257.533 85.0043 263.652 86.6358 271.009 86.6358H351.473C358.009 86.6358 363.901 84.9685 369.139 81.6341C374.377 78.2997 376.996 74.3817 376.996 69.8921V69.8802ZM540.376 118.908H509.745V31.4747H475.031H429.282V0.0119087H467.877L583.471 0.214357L622.066 0.0119087V31.4747H540.376V118.908V118.908ZM755.017 118.908H724.386V31.4747H689.672H643.923V0.0119087H682.517L798.112 0.214357L836.706 0.0119087V31.4747H755.017V118.908ZM1024.4 86.6239H1051.36V118.908H1012.76H897.17C886.408 118.908 877.289 116.015 869.801 110.227C862.313 104.439 858.563 97.4608 858.563 89.2914V44.9553H1051.36V73.1432H889.206V86.6239H914.944H995.407H1024.41H1024.4ZM858.563 31.4628V29.6288C858.563 21.4595 862.313 14.481 869.801 8.69335C877.289 2.90572 886.408 0.0119087 897.17 0.0119087L1012.76 0.214357L1051.36 0.0119087V31.4747H915.134H904.313H858.563V31.4628ZM1145.5 73.1432L1106.69 118.908H1073.2L1122.63 58.8409L1073.2 0H1106.69L1145.5 45.7651V55.9828V73.1432V73.1432Z" fill="#F2F2F2"/>
<path d="M1193.72 73.1432H1160.64V45.7651H1193.72L1232.53 0H1266.02L1216.59 58.8409L1266.02 118.896H1232.53L1193.72 73.1432Z" fill="#4DCF1D"/>
<path d="M799.844 190.313H842.022C852.593 190.313 861.986 192.409 870.188 196.6C878.391 200.792 884.748 206.687 889.271 214.261C893.795 221.847 896.057 230.54 896.057 240.365C896.057 250.178 893.795 258.883 889.271 266.457C884.748 274.043 878.379 279.926 870.188 284.117C861.998 288.309 852.605 290.405 842.022 290.405H799.844V190.301V190.313ZM841.153 277.973C849.26 277.973 856.379 276.401 862.522 273.257C868.664 270.113 873.414 265.707 876.748 260.026C880.081 254.358 881.748 247.796 881.748 240.365C881.748 232.934 880.081 226.372 876.748 220.704C873.414 215.035 868.676 210.617 862.522 207.473C856.379 204.329 849.248 202.757 841.153 202.757H814.129V277.973H841.153Z" fill="#4DCF1D"/>
<path d="M915.917 214.609H929.643V290.408H915.917V214.609ZM922.774 200.021C920.107 200.021 917.893 199.164 916.119 197.449C914.358 195.734 913.477 193.638 913.477 191.161C913.477 188.684 914.358 186.564 916.119 184.802C917.881 183.039 920.096 182.158 922.774 182.158C925.441 182.158 927.655 182.992 929.429 184.659C931.191 186.326 932.072 188.398 932.072 190.875C932.072 193.448 931.191 195.615 929.429 197.378C927.667 199.14 925.453 200.021 922.774 200.021Z" fill="#4DCF1D"/>
<path d="M1028.25 214.616V280.114C1028.25 293.368 1024.97 303.157 1018.38 309.504C1011.81 315.84 1001.99 319.019 988.932 319.019C981.777 319.019 974.968 318.043 968.492 316.09C962.016 314.137 956.766 311.35 952.766 307.73L959.337 297.143C962.861 300.192 967.23 302.597 972.42 304.36C977.611 306.122 982.98 307.003 988.503 307.003C997.372 307.003 1003.92 304.907 1008.16 300.716C1012.4 296.524 1014.52 290.129 1014.52 281.554V275.552C1011.28 279.459 1007.3 282.388 1002.57 284.341C997.861 286.294 992.742 287.271 987.206 287.271C979.968 287.271 973.408 285.723 967.551 282.626C961.694 279.53 957.087 275.195 953.754 269.61C950.42 264.037 948.754 257.666 948.754 250.52C948.754 243.375 950.42 237.004 953.754 231.431C957.087 225.858 961.682 221.535 967.551 218.486C973.408 215.437 979.968 213.913 987.206 213.913C992.92 213.913 998.241 214.961 1003.15 217.057C1008.05 219.153 1012.09 222.249 1015.23 226.358V214.628H1028.24L1028.25 214.616ZM988.789 275.255C993.742 275.255 998.206 274.207 1002.16 272.111C1006.11 270.015 1009.22 267.085 1011.44 263.322C1013.68 259.559 1014.8 255.296 1014.8 250.52C1014.8 243.185 1012.37 237.242 1007.52 232.717C1002.66 228.192 996.408 225.929 988.789 225.929C981.075 225.929 974.777 228.192 969.92 232.717C965.063 237.242 962.635 243.173 962.635 250.52C962.635 255.284 963.754 259.559 965.992 263.322C968.23 267.085 971.325 270.015 975.277 272.111C979.23 274.207 983.73 275.255 988.789 275.255Z" fill="#4DCF1D"/>
<path d="M1054.42 214.609H1068.15V290.408H1054.42V214.609ZM1061.28 200.021C1058.62 200.021 1056.4 199.164 1054.63 197.449C1052.87 195.734 1051.98 193.638 1051.98 191.161C1051.98 188.684 1052.87 186.564 1054.63 184.802C1056.39 183.039 1058.6 182.158 1061.28 182.158C1063.95 182.158 1066.16 182.992 1067.94 184.659C1069.7 186.326 1070.58 188.398 1070.58 190.875C1070.58 193.448 1069.7 195.615 1067.94 197.378C1066.17 199.14 1063.96 200.021 1061.28 200.021Z" fill="#4DCF1D"/>
<path d="M1136.88 285.967C1134.88 287.682 1132.41 288.992 1129.45 289.897C1126.5 290.802 1123.45 291.255 1120.3 291.255C1112.68 291.255 1106.76 289.206 1102.57 285.11C1098.38 281.013 1096.29 275.142 1096.29 267.521V225.912H1083.42V214.61H1096.29V198.021H1110.01V214.61H1131.74V225.912H1110.01V266.949C1110.01 271.046 1111.04 274.201 1113.08 276.393C1115.13 278.584 1118.06 279.679 1121.87 279.679C1126.06 279.679 1129.64 278.489 1132.6 276.107L1136.88 285.979V285.967Z" fill="#4DCF1D"/>
<path d="M1181.1 213.897C1191.59 213.897 1199.62 216.469 1205.2 221.613C1210.77 226.758 1213.56 234.439 1213.56 244.633V290.398H1200.54V280.383C1198.26 283.908 1195 286.599 1190.75 288.457C1186.51 290.315 1181.47 291.244 1175.66 291.244C1167.18 291.244 1160.39 289.195 1155.3 285.099C1150.2 281.002 1147.64 275.608 1147.64 268.939C1147.64 262.27 1150.07 256.899 1154.93 252.85C1159.78 248.801 1167.51 246.777 1178.08 246.777H1199.81V244.061C1199.81 238.155 1198.09 233.617 1194.66 230.474C1191.24 227.33 1186.19 225.758 1179.51 225.758C1175.03 225.758 1170.64 226.496 1166.35 227.973C1162.07 229.449 1158.45 231.426 1155.49 233.903L1149.77 223.602C1153.68 220.458 1158.35 218.053 1163.78 216.386C1169.21 214.718 1174.99 213.885 1181.08 213.885L1181.1 213.897ZM1177.96 280.681C1183.2 280.681 1187.74 279.514 1191.54 277.179C1195.35 274.845 1198.12 271.535 1199.83 267.236V256.649H1178.68C1167.05 256.649 1161.24 260.555 1161.24 268.379C1161.24 272.19 1162.71 275.191 1165.66 277.394C1168.62 279.585 1172.72 280.681 1177.96 280.681V280.681Z" fill="#4DCF1D"/>
<path d="M1239 184.307H1252.73V290.413H1239V184.307Z" fill="#4DCF1D"/>
</g>
<defs>
<clipPath id="clip0">
<rect width="1266" height="319" fill="white"/>
</clipPath>
</defs>
</svg>
